# xmcd
#
# Track frame offsets: 
#        150
#        12769
#        23785
#        38755
#        52937
#        66453
#        82495
#        101151
#        118242
#        138688
#        154814
#        170139
#        188794
#        203260
#        216752
#        232053
#        249792
#        262456
#        272968
#        285580
#        299925
#        313265
#        329779
#
# Disc length: 4675 seconds
#
# Revision: 0
# Processed by: cddbd v1.5.2PL0 Copyright (c) Steve Scherf et al.
# Submitted via: ExactAudioCopyFreeDBPlugin 1.0
#
DISCID=7a124117
DTITLE=Various Artist - Hit Country Australia - Volume 3
DYEAR=2019
DGENRE=Country
TTITLE0=The Wolfe Brothers - No Sad Song
TTITLE1=Kasey Chambers and The Fireside Disciples - Goliath Is Dead
TTITLE2=Travis Collins - Happy
TTITLE3=Lee Kernaghan and James Blundell - Back In '92
TTITLE4=Caitlyn Shadbolt - Jealousy
TTITLE5=Rachael Fahim - Brake Lights
TTITLE6=Adam Brand - If Heaven Has A Soundtrack
TTITLE7=Adam Eckersley and Brooke McClymont - So Smooth
TTITLE8=Beccy Cole - Lioness
TTITLE9=Troy Cassar-Daley - Wouldn't Change A Thing
TTITLE10=Drew McAlister - Kissing A Girl Goodnight
TTITLE11=Jasmine Rae - When I Found You
TTITLE12=Jayne Denham and Troy Kemp - Hung Up On You
TTITLE13=Kaylee Bell - One More Shot
TTITLE14=Casey Barnes - Be Mine
TTITLE15=Andrew Swift - Runaway Train
TTITLE16=Tori Forsyth - Broke Machine
TTITLE17=Catherine Britt - Red Dirt
TTITLE18=Lachlan Bryan and The Wildes - It Tears Me Up (Every Time You
TTITLE18=Turn Me Down)
TTITLE19=Sinead Burgess - Praising God, Raising Hell
TTITLE20=Adam Harvey - I'd Rather Be A Highwayman
TTITLE21=Graeme Connors - One Life
TTITLE22=Libby O'Donovan - Back To Broken Hill
EXTD=
EXTT0=
EXTT1=
EXTT2=
EXTT3=
EXTT4=
EXTT5=
EXTT6=
EXTT7=
EXTT8=
EXTT9=
EXTT10=
EXTT11=
EXTT12=
EXTT13=
EXTT14=
EXTT15=
EXTT16=
EXTT17=
EXTT18=
EXTT19=
EXTT20=
EXTT21=
EXTT22=
PLAYORDER=
